<?xml version="1.0" standalone="no"?>
<!DOCTYPE svg PUBLIC "-//W3C//DTD SVG 20010904//EN"
 "http://www.w3.org/TR/2001/REC-SVG-20010904/DTD/svg10.dtd">
<svg version="1.0" xmlns="http://www.w3.org/2000/svg"
 width="1080.000000pt" height="1077.000000pt" viewBox="0 0 1080.000000 1077.000000"
 preserveAspectRatio="xMidYMid meet">

<g transform="translate(0.000000,1077.000000) scale(0.100000,-0.100000)"
fill="#000000" stroke="none">
<path d="M0 5385 l0 -5385 5400 0 5400 0 0 945 0 945 -97 0 c-54 0 -154 -5
-223 -11 -69 -5 -199 -14 -290 -19 -91 -6 -219 -14 -285 -20 -66 -5 -210 -16
-320 -25 -110 -8 -247 -20 -305 -25 -58 -5 -195 -17 -305 -25 -110 -8 -247
-19 -305 -25 -58 -5 -159 -14 -225 -20 -186 -15 -408 -37 -670 -65 -132 -14
-283 -30 -335 -35 -52 -6 -124 -14 -160 -20 -36 -5 -108 -14 -160 -20 -52 -6
-135 -18 -185 -25 -49 -8 -126 -19 -170 -25 -115 -16 -415 -68 -555 -96 -65
-13 -190 -42 -375 -88 -27 -7 -68 -20 -90 -30 -44 -20 -45 -20 -225 27 -52 14
-131 33 -175 42 -44 9 -127 27 -185 40 -145 32 -312 62 -545 99 -55 9 -127 21
-160 26 -33 6 -98 15 -145 21 -47 6 -112 14 -145 19 -222 30 -486 62 -590 70
-55 5 -136 13 -180 19 -44 5 -132 15 -195 20 -63 6 -162 16 -220 22 -58 5
-161 14 -230 19 -69 6 -174 14 -235 20 -104 9 -290 23 -770 55 -115 8 -298 21
-405 29 -216 17 -547 41 -771 56 -81 5 -176 10 -212 10 -66 0 -82 6 -69 27 15
23 1673 40 2397 24 524 -11 1071 -33 1265 -51 58 -5 164 -15 235 -21 72 -5
171 -15 220 -20 50 -5 133 -14 186 -19 153 -16 543 -84 683 -120 106 -27 279
-82 291 -92 5 -4 19 -8 31 -8 13 0 26 -4 29 -10 8 -12 89 -13 113 -1 51 27
346 105 547 146 44 9 94 20 111 26 17 5 48 9 70 9 21 0 56 5 76 10 49 14 294
47 488 66 85 8 198 19 250 25 166 16 661 43 1110 60 311 12 1727 8 2202 -6
l208 -6 0 952 0 952 -557 -6 c-307 -4 -700 -10 -873 -14 -410 -8 -1518 25
-1910 57 -251 21 -367 32 -478 46 -62 8 -132 14 -155 14 -23 0 -58 4 -77 9
-19 5 -66 13 -105 19 -186 28 -391 65 -400 72 -5 4 -34 11 -64 15 -30 4 -83
15 -118 25 -34 10 -63 17 -63 15 0 -2 -16 3 -35 11 -20 8 -40 12 -45 9 -6 -4
-10 -1 -10 4 0 6 -8 11 -19 11 -10 0 -62 16 -116 35 l-96 34 -47 -18 c-178
-70 -431 -139 -622 -171 -256 -43 -410 -64 -615 -84 -234 -24 -261 -26 -410
-36 -77 -5 -192 -14 -255 -20 -63 -5 -162 -10 -220 -10 -58 0 -193 -4 -300
-10 -483 -24 -1271 -33 -1838 -21 -982 22 -1075 25 -1079 37 -4 11 37 15 332
34 279 17 469 30 650 45 100 9 246 20 325 25 207 13 553 38 710 51 74 5 216
17 315 25 220 17 478 40 605 54 52 6 141 15 198 20 57 4 142 13 190 19 48 5
134 15 192 21 58 6 128 15 155 20 28 6 95 15 150 21 156 17 346 45 640 94 205
34 306 54 585 115 47 10 119 26 160 35 41 9 84 20 95 24 74 32 115 35 150 11
6 -3 37 -14 70 -23 33 -9 85 -24 115 -33 30 -8 69 -18 85 -20 17 -3 48 -10 69
-16 22 -5 60 -14 85 -18 26 -5 82 -16 126 -25 44 -10 105 -21 135 -25 30 -5
98 -15 150 -24 244 -39 300 -48 375 -56 44 -5 87 -11 95 -14 8 -3 78 -12 155
-21 77 -8 169 -20 205 -25 36 -5 178 -21 315 -35 138 -14 291 -29 340 -35 50
-6 169 -17 265 -25 96 -8 195 -17 220 -20 25 -3 128 -12 230 -20 102 -8 241
-19 310 -24 69 -6 184 -16 255 -21 72 -6 173 -15 225 -20 52 -5 174 -14 270
-20 96 -6 222 -15 280 -20 58 -6 197 -15 310 -20 113 -6 242 -13 288 -17 l82
-6 0 3432 0 3431 -5400 0 -5400 0 0 -5385z m5930 4490 c410 -40 772 -160 1119
-372 199 -121 330 -224 496 -390 398 -399 640 -864 739 -1423 43 -238 46 -520
6 -520 -6 0 -10 -7 -10 -15 0 -8 5 -15 11 -15 13 0 6 -204 -9 -285 -6 -27 -15
-79 -21 -115 -18 -111 -32 -171 -68 -290 -105 -346 -268 -640 -521 -940 -65
-77 -252 -262 -302 -298 -19 -14 -48 -38 -65 -53 -49 -44 -213 -152 -325 -216
-299 -168 -608 -271 -960 -320 -235 -32 -643 -19 -850 27 -172 39 -385 101
-445 129 -11 6 -54 24 -95 41 -108 45 -285 140 -392 211 -539 357 -936 900
-1091 1494 -8 33 -20 78 -26 100 -6 22 -15 74 -21 115 -19 138 -22 155 -26
162 -2 3 -7 70 -9 147 -3 78 -10 153 -15 167 -13 33 -13 220 0 298 5 33 17
106 25 161 38 249 124 510 245 750 80 160 110 209 204 345 342 489 892 875
1461 1025 331 86 621 111 945 80z m1750 -6365 c29 -29 25 -93 -10 -175 -5 -11
-21 -49 -36 -85 -27 -67 -68 -143 -90 -170 -7 -8 -22 -44 -34 -80 -22 -62 -33
-91 -81 -197 -12 -26 -24 -64 -27 -85 -4 -32 -2 -38 13 -38 10 0 28 10 40 23
12 12 34 33 49 46 l26 24 -25 -52 c-65 -128 -192 -141 -211 -22 -4 23 -10 41
-15 41 -5 0 -19 -14 -31 -31 -40 -53 -148 -103 -148 -68 0 6 -6 9 -14 6 -15
-6 -46 22 -46 42 0 28 -30 21 -64 -17 -44 -48 -96 -66 -151 -51 -83 23 -109
70 -103 183 4 68 11 94 43 160 49 104 129 186 202 210 59 18 84 13 125 -29 22
-22 25 -31 17 -46 -10 -20 -24 -25 -33 -10 -3 5 1 12 10 15 13 5 14 9 4 21
-22 26 -47 16 -95 -37 -111 -123 -178 -335 -127 -398 35 -43 65 -22 140 95 39
60 72 102 80 100 8 -3 12 6 12 26 0 18 4 28 10 24 6 -4 10 6 10 22 0 16 4 33
9 39 4 5 16 43 26 84 23 92 32 104 74 95 97 -21 76 -137 -65 -372 -57 -94 -66
-135 -31 -141 58 -11 192 202 297 472 19 48 47 102 63 118 23 26 61 135 82
241 7 30 15 37 51 37 21 0 42 -8 54 -20z m710 -16 c0 -8 7 -22 15 -30 13 -14
15 -13 15 5 0 12 -4 21 -10 21 -5 0 -10 5 -10 10 0 6 11 10 25 10 34 0 47 -30
39 -90 l-7 -50 68 0 c102 0 192 19 220 48 27 27 45 22 45 -12 0 -23 -41 -50
-107 -70 -43 -14 -258 -24 -265 -12 -4 5 -6 -5 -6 -24 1 -19 -4 -36 -10 -38
-7 -2 -9 -8 -6 -14 4 -5 2 -20 -4 -31 -5 -12 -20 -51 -32 -87 -13 -36 -53
-131 -91 -212 -70 -150 -94 -223 -78 -234 19 -12 46 9 99 77 62 81 80 110 100
159 55 137 191 273 241 242 13 -8 20 -8 29 3 25 30 96 5 101 -35 7 -64 -27
-139 -80 -176 -26 -19 -39 -13 -18 8 20 20 53 87 61 123 8 42 -5 59 -40 51
-16 -4 -34 -7 -40 -8 -6 -1 -11 -6 -10 -12 0 -6 -22 -55 -49 -108 -27 -54 -46
-100 -42 -104 4 -4 25 1 47 11 22 10 43 15 46 12 11 -10 -54 -65 -90 -77 -38
-12 -46 -30 -46 -101 0 -67 23 -85 92 -73 51 9 55 12 121 94 78 98 174 282
183 353 6 40 11 48 32 54 38 9 75 -8 92 -44 8 -18 18 -33 22 -33 3 0 25 15 47
34 48 40 73 50 105 42 32 -8 46 -46 46 -123 0 -60 1 -65 20 -60 11 3 20 1 20
-4 0 -5 -3 -9 -8 -9 -16 0 -142 -297 -142 -337 0 -44 -86 -39 -111 8 -25 47
-4 125 77 290 42 86 74 162 70 168 -20 32 -87 -20 -153 -119 -48 -71 -153
-292 -153 -322 0 -29 -23 -58 -46 -58 -30 0 -64 47 -64 90 0 22 -5 40 -11 40
-12 0 -71 -42 -115 -82 -35 -33 -113 -50 -159 -35 -46 14 -85 57 -97 104 -6
24 -14 43 -17 43 -4 0 -22 -20 -41 -45 -43 -57 -97 -101 -138 -110 -27 -6 -36
-2 -62 23 -16 17 -30 41 -30 54 0 48 -14 50 -56 7 -45 -47 -88 -69 -138 -69
-29 0 -38 5 -51 30 -8 16 -15 40 -15 55 0 14 -4 25 -8 25 -4 0 -30 -23 -57
-51 -62 -64 -106 -85 -145 -69 -32 13 -50 47 -50 95 0 19 -4 37 -10 40 -18 11
-10 37 49 159 32 67 66 146 76 176 26 80 29 85 63 88 23 2 39 -4 58 -23 43
-43 31 -98 -59 -279 -89 -176 -94 -191 -71 -200 23 -9 61 29 134 134 79 113
87 123 97 117 5 -3 10 3 10 14 1 10 13 52 27 93 14 41 26 85 26 99 0 34 23 50
60 42 57 -13 72 -60 46 -146 -29 -95 -122 -249 -151 -249 -20 0 -27 -17 -17
-37 11 -21 5 -46 -9 -37 -14 9 -10 -4 8 -26 33 -39 58 -23 140 90 57 78 86
134 147 283 30 73 64 154 75 181 12 27 20 55 17 63 -7 18 -104 17 -185 -2 -72
-17 -89 -28 -102 -63 -8 -20 -12 -22 -24 -12 -21 17 -19 90 3 116 37 47 77 57
220 56 l133 -1 19 32 c11 17 22 44 25 59 7 30 25 39 25 12z m-5987 -63 c99
-48 178 -160 180 -255 2 -95 -28 -133 -98 -124 -41 5 -52 28 -32 71 10 20 17
60 17 94 0 48 -5 68 -29 105 -33 53 -56 68 -100 68 -21 0 -34 -7 -42 -22 -15
-28 -7 -157 15 -228 9 -30 37 -122 63 -205 44 -142 46 -156 47 -270 1 -150
-14 -195 -86 -260 -51 -45 -142 -83 -174 -71 -7 3 -14 1 -14 -4 0 -36 -210
-37 -309 -1 -113 42 -171 124 -171 243 0 103 52 203 133 256 77 49 210 31 271
-37 41 -45 51 -120 24 -173 -11 -22 -90 -25 -107 -5 -7 9 -8 37 -4 79 5 62 4
68 -20 92 -62 62 -174 11 -228 -104 -26 -55 -29 -160 -6 -204 21 -39 71 -83
115 -102 53 -22 155 -20 233 4 37 11 77 18 90 15 18 -5 21 -3 16 11 -4 11 1
29 13 47 26 36 50 126 50 187 -1 86 -64 391 -84 404 -8 5 -8 13 -1 25 6 10 8
38 5 63 l-6 45 -8 -34 -8 -35 -15 27 c-8 15 -17 66 -20 112 -6 92 8 135 47
135 12 0 20 8 22 23 8 57 129 72 221 28z m4133 -2 c33 -17 73 -44 90 -61 117
-112 125 -318 12 -318 -57 0 -64 11 -48 72 17 68 16 148 -4 186 -40 78 -135
111 -157 55 -19 -50 12 -226 70 -392 31 -88 58 -201 66 -272 9 -84 -14 -195
-52 -251 -34 -52 -108 -99 -157 -101 -20 -1 -36 -6 -36 -11 0 -5 -3 -7 -6 -3
-4 3 -25 -3 -48 -15 -36 -18 -52 -20 -142 -15 -153 9 -247 56 -297 152 -33 62
-30 173 6 246 53 110 116 154 218 153 55 0 72 -4 109 -30 65 -44 85 -76 85
-138 0 -66 -15 -86 -66 -86 -46 0 -74 24 -63 54 16 46 9 104 -15 130 -64 68
-194 0 -236 -123 -70 -207 105 -356 338 -287 31 10 70 16 85 13 15 -2 21 -2
15 0 -18 6 -16 16 7 30 52 33 88 192 70 308 -17 108 -54 261 -71 300 -12 25
-12 64 -3 133 4 33 3 52 -4 52 -5 0 -12 -8 -16 -17 -3 -10 -9 -25 -12 -33 -5
-13 -4 -13 5 0 12 18 26 7 18 -15 -11 -27 -25 -16 -41 32 -25 73 -21 144 9
177 14 15 25 31 25 37 0 5 7 9 15 9 8 0 14 5 13 11 -5 19 64 49 113 49 33 0
65 -9 105 -31z m-3412 -264 c33 -30 34 -71 5 -157 -30 -91 -136 -304 -170
-343 -33 -37 -38 -65 -10 -65 28 0 66 34 129 118 71 95 110 157 153 246 36 73
114 168 158 191 43 22 116 29 150 14 51 -23 71 -94 26 -94 -15 0 -21 8 -25 35
-8 57 -39 52 -80 -12 -98 -152 -129 -224 -137 -321 -5 -56 -3 -70 12 -87 10
-11 24 -20 32 -20 8 0 41 25 74 57 32 31 59 54 59 51 0 -17 -44 -90 -71 -116
-92 -90 -239 -36 -239 88 0 16 -4 30 -9 30 -5 0 -28 -24 -52 -52 -54 -67 -91
-102 -157 -145 -29 -19 -56 -42 -59 -51 -80 -233 -111 -273 -219 -280 -88 -6
-144 28 -144 86 0 33 35 66 114 107 42 21 85 48 95 60 21 23 57 113 48 121 -3
3 -22 1 -43 -5 -49 -14 -106 3 -144 41 -71 70 -36 258 75 410 39 54 108 98
164 105 65 9 159 -70 106 -90 -8 -4 -17 -2 -20 4 -4 5 -3 9 2 8 19 -3 23 2 13
21 -28 53 -95 2 -168 -131 -69 -125 -93 -224 -68 -284 23 -54 55 -48 105 18
22 28 50 64 61 80 24 30 48 35 56 12 8 -20 24 -19 24 2 0 9 -3 13 -7 10 -3 -4
-11 1 -18 10 -12 16 1 63 18 63 5 0 6 4 3 9 -4 5 3 29 13 54 18 41 42 123 55
189 5 24 19 33 52 37 6 0 23 -10 38 -24z m753 0 c11 -8 24 -26 27 -40 8 -33
15 -32 62 9 45 38 76 50 108 42 23 -6 51 -51 41 -67 -4 -5 -1 -9 4 -9 7 0 8
-21 4 -61 l-6 -61 26 17 c15 9 27 21 27 26 0 5 5 9 10 9 6 0 -7 -24 -30 -53
-22 -30 -40 -59 -40 -66 0 -7 -12 -38 -26 -69 -50 -109 -54 -120 -66 -171 -13
-57 -33 -70 -80 -52 -73 28 -65 110 29 302 80 163 88 185 73 194 -40 25 -136
-91 -230 -279 -39 -78 -72 -156 -74 -173 -3 -18 -7 -37 -11 -43 -11 -18 -45
-11 -70 15 -31 30 -32 76 -6 160 11 33 16 63 12 68 -4 4 -22 2 -39 -4 -18 -6
-39 -9 -46 -6 -8 3 -20 -1 -27 -9 -11 -13 -23 -11 -25 4 0 4 -6 27 -13 51 -17
59 -3 94 37 89 25 -3 27 -6 27 -53 0 -60 10 -64 75 -32 40 19 50 32 87 107 27
53 43 99 43 122 0 20 6 39 13 41 24 10 63 7 84 -8z m514 -14 c53 -53 37 -151
-56 -341 -25 -52 -45 -102 -45 -112 0 -26 26 -33 54 -14 28 18 147 192 171
250 53 127 148 226 216 226 21 0 41 5 44 10 9 15 58 12 83 -6 33 -23 30 -87
-7 -146 -16 -26 -39 -52 -50 -58 -26 -13 -26 -6 -3 28 28 41 44 87 40 118 -3
26 -7 29 -38 29 -33 0 -37 -4 -72 -70 -54 -103 -79 -157 -73 -163 2 -3 25 3
50 13 26 9 48 16 50 14 9 -10 -29 -43 -76 -68 -58 -30 -76 -65 -65 -129 10
-62 33 -73 109 -51 48 13 80 45 154 155 61 91 67 104 73 179 9 102 43 143 133
160 25 5 52 0 102 -20 70 -28 82 -29 213 -9 33 5 42 4 42 -8 0 -23 -155 -169
-173 -162 -11 4 -14 1 -11 -13 3 -11 -2 -25 -10 -32 -9 -8 -16 -19 -16 -26 0
-7 -31 -55 -70 -107 -38 -51 -68 -97 -67 -102 3 -10 81 -40 132 -51 l30 -7
-33 -16 c-27 -13 -40 -14 -77 -4 -25 7 -86 12 -135 12 -100 0 -103 3 -69 60
18 29 110 148 144 186 6 6 35 43 65 82 30 39 60 72 65 72 6 0 21 9 34 19 31
24 22 60 -13 54 -13 -3 -42 5 -64 16 -52 26 -86 27 -112 1 -39 -39 -20 -99 37
-121 30 -11 29 -23 -4 -49 -19 -15 -39 -20 -70 -19 -23 2 -44 1 -45 -2 -2 -2
-11 -20 -21 -39 -28 -55 -115 -159 -150 -180 -18 -10 -45 -32 -62 -49 -79 -80
-238 -43 -260 61 -4 15 -10 30 -15 33 -4 2 -28 -17 -53 -44 -66 -70 -96 -91
-132 -91 -39 0 -50 12 -67 73 -11 41 -10 57 6 120 10 39 36 110 56 157 36 80
44 107 41 138 -2 23 -45 12 -78 -20 -40 -38 -51 -33 -20 9 26 37 93 83 120 83
10 0 32 -13 48 -29z m5114 6 c20 -17 28 -35 32 -70 7 -63 -9 -120 -73 -258
-30 -65 -54 -125 -54 -134 0 -24 25 -28 55 -9 29 19 127 159 169 242 25 49 56
70 56 37 0 -23 -61 -130 -119 -209 -68 -91 -123 -136 -166 -136 -38 0 -49 11
-65 67 -18 59 0 141 62 285 28 64 48 124 45 132 -12 31 -51 17 -100 -35 -26
-28 -47 -48 -47 -45 0 14 50 83 81 112 54 50 85 55 124 21z m-3975 -195 c0
-10 -7 -28 -17 -41 -9 -13 -26 -42 -37 -63 -36 -67 -119 -166 -158 -188 -21
-12 -38 -19 -38 -16 0 2 19 26 43 51 52 58 104 135 142 214 20 39 36 61 48 61
10 0 17 -7 17 -18z m-2010 -157 c0 -8 -4 -15 -10 -15 -5 0 -7 7 -4 15 4 8 8
15 10 15 2 0 4 -7 4 -15z"/>
<path d="M5445 9539 c-269 -26 -580 -118 -828 -246 -85 -44 -302 -183 -355
-227 -275 -230 -440 -423 -599 -704 -29 -51 -53 -95 -53 -98 0 -2 -16 -36 -35
-76 -45 -91 -109 -281 -140 -413 -28 -117 -41 -214 -60 -423 -7 -84 -18 -159
-25 -167 -9 -10 -8 -19 1 -37 7 -13 12 -25 11 -28 -1 -3 0 -18 2 -35 3 -16 10
-77 17 -135 33 -299 151 -619 336 -919 140 -226 305 -414 510 -578 423 -339
915 -512 1458 -513 589 0 1118 208 1573 620 237 215 463 547 580 851 18 46 41
107 52 134 10 28 22 64 26 80 3 17 13 50 21 75 8 25 19 70 23 100 5 30 15 98
24 150 8 52 18 115 21 140 4 24 11 53 17 63 7 14 5 24 -8 38 -14 16 -20 46
-25 142 -7 111 -12 152 -39 327 -14 88 -67 282 -106 387 -140 373 -357 683
-674 962 -94 83 -321 232 -458 300 -238 119 -545 207 -807 231 -117 11 -346
11 -460 -1z m260 -120 c41 -10 43 -13 35 -35 -9 -22 -7 -24 18 -24 15 0 22 4
16 8 -6 4 -11 15 -11 25 0 21 53 22 212 2 341 -43 648 -154 905 -328 457 -309
750 -708 903 -1232 20 -66 41 -156 47 -200 7 -44 16 -102 20 -130 12 -73 12
-460 -1 -530 -5 -33 -14 -89 -19 -125 -25 -170 -135 -486 -221 -631 -16 -28
-29 -52 -29 -55 0 -11 -136 -212 -188 -277 -201 -253 -504 -490 -792 -621
-100 -46 -242 -96 -269 -96 -11 0 -22 -4 -25 -9 -4 -5 -25 -12 -49 -16 -23 -4
-76 -15 -117 -25 -76 -19 -143 -27 -285 -34 -44 -2 -117 -10 -162 -17 -71 -11
-103 -11 -243 4 -741 81 -1385 526 -1720 1192 -66 130 -142 324 -159 406 -6
24 -16 71 -24 104 -89 358 -62 807 69 1188 71 205 222 479 348 632 75 90 90
108 176 194 308 310 689 512 1130 600 178 35 363 48 435 30z"/>
<path d="M5695 9340 c-16 -4 -55 -8 -85 -9 -145 -3 -422 -52 -575 -102 -219
-71 -434 -186 -640 -342 -73 -56 -261 -236 -310 -297 -155 -194 -261 -372
-344 -580 -49 -121 -70 -196 -108 -370 -26 -118 -27 -140 -27 -395 -1 -246 1
-280 22 -375 102 -464 271 -789 566 -1086 378 -381 824 -582 1386 -626 195
-15 380 -13 380 5 0 4 13 7 30 7 31 0 74 9 195 43 39 10 84 22 100 26 138 35
426 178 597 297 178 123 381 330 521 531 21 29 37 55 37 59 0 3 13 24 28 47
63 94 153 292 198 437 57 181 77 290 95 500 10 124 10 169 -5 314 -27 278 -86
493 -196 721 -133 275 -317 512 -545 704 -69 58 -209 161 -219 161 -2 0 -33
17 -68 39 -116 71 -283 146 -423 192 -22 7 -44 17 -49 21 -6 4 -20 8 -31 8
-12 0 -46 8 -76 19 -30 10 -87 21 -127 25 -40 4 -94 13 -120 20 -53 15 -162
18 -207 6z m1005 -465 c0 -19 -71 -176 -113 -250 -46 -81 -154 -205 -179 -205
-4 0 -26 -18 -48 -40 -42 -42 -61 -47 -165 -40 -98 5 -169 92 -169 205 0 157
111 237 329 240 39 0 77 3 85 7 8 3 41 12 72 18 32 7 81 26 110 41 51 26 78
35 78 24z m-920 -162 c-128 -105 -210 -226 -210 -310 0 -78 28 -133 109 -214
42 -41 103 -90 136 -109 117 -65 439 -285 493 -336 12 -12 38 -32 57 -45 33
-23 47 -49 25 -49 -5 0 -10 -16 -10 -35 0 -19 -8 -44 -17 -54 -15 -19 -17 -19
-29 -3 -13 16 -13 16 -14 0 0 -10 -10 -23 -22 -29 -14 -8 -18 -14 -10 -17 13
-4 17 -23 5 -21 -35 6 -42 -10 -17 -35 12 -13 20 -14 37 -4 12 6 27 18 33 26
7 9 19 13 33 9 11 -3 19 -1 15 4 -9 16 6 31 20 20 9 -8 16 -4 26 14 9 18 22
25 42 25 15 0 28 4 28 9 0 12 -45 22 -64 15 -24 -9 -46 14 -46 47 0 38 19 37
61 -2 18 -17 49 -39 68 -49 20 -10 69 -46 110 -81 173 -145 315 -331 383 -499
63 -159 63 -156 63 -320 -1 -149 -2 -159 -34 -250 -115 -335 -387 -621 -754
-795 -257 -121 -476 -181 -817 -221 -44 -5 -44 -5 -18 9 14 8 43 20 65 27 21
7 81 30 133 52 398 167 629 365 710 612 19 59 22 83 18 175 -5 104 -11 130
-61 246 -73 173 -228 314 -465 426 -184 87 -208 99 -230 119 -23 22 -37 27
-27 9 7 -10 -35 10 -45 22 -3 3 -32 9 -64 12 -54 5 -144 32 -306 89 -125 44
-282 136 -436 255 -235 181 -314 322 -269 479 55 193 283 405 621 577 184 93
426 181 615 222 103 22 110 19 59 -22z m-1645 -1440 c-12 -214 17 -387 89
-537 86 -179 222 -305 396 -366 79 -27 223 -30 315 -6 33 8 84 18 113 22 28 4
52 10 52 14 0 4 17 15 38 24 37 16 52 25 104 59 41 27 184 96 231 111 103 34
168 40 251 23 100 -21 153 -47 221 -109 80 -72 127 -172 133 -279 18 -316
-240 -565 -647 -624 -140 -20 -306 -9 -294 21 4 11 -2 12 -27 7 -30 -6 -32 -4
-25 17 5 16 4 21 -6 18 -8 -3 -14 -13 -14 -24 0 -43 -154 -24 -295 38 -182 80
-300 159 -429 288 -172 171 -285 398 -327 649 -17 104 -18 314 -3 413 20 125
102 368 124 368 3 0 3 -57 0 -127z"/>
<path d="M6391 8524 c0 -11 3 -14 6 -6 3 7 2 16 -1 19 -3 4 -6 -2 -5 -13z"/>
<path d="M5660 7180 c0 -5 10 -10 22 -10 17 0 19 -3 10 -12 -7 -7 -12 -27 -12
-46 0 -26 -3 -33 -15 -28 -8 3 -15 1 -15 -4 0 -17 22 -11 54 14 17 13 41 26
53 30 11 4 27 14 34 22 11 13 9 14 -12 9 -13 -3 -36 -2 -49 4 -19 7 -20 10 -7
10 33 2 6 21 -29 21 -19 0 -34 -4 -34 -10z"/>
<path d="M5488 7133 c7 -3 16 -2 19 1 4 3 -2 6 -13 5 -11 0 -14 -3 -6 -6z"/>
<path d="M5566 7116 c3 -8 12 -12 20 -9 21 8 17 23 -6 23 -13 0 -18 -5 -14
-14z"/>
<path d="M6290 7000 c0 -5 5 -10 10 -10 6 0 10 5 10 10 0 6 -4 10 -10 10 -5 0
-10 -4 -10 -10z"/>
<path d="M6371 6991 c-10 -10 -25 -21 -32 -24 -11 -3 -10 -6 4 -12 23 -10 50
2 41 17 -6 10 -4 10 8 0 9 -7 31 -12 49 -10 l32 3 -42 22 c-40 22 -42 22 -60
4z"/>
<path d="M6463 7003 c9 -2 17 -9 17 -14 0 -6 24 -9 53 -9 28 1 69 -3 90 -8 24
-6 39 -6 43 0 10 16 -4 21 -74 25 -37 1 -85 5 -107 7 -22 2 -32 2 -22 -1z"/>
<path d="M6560 6960 c0 -5 5 -10 11 -10 5 0 7 5 4 10 -3 6 -8 10 -11 10 -2 0
-4 -4 -4 -10z"/>
<path d="M5100 6379 c0 -5 -7 -9 -15 -9 -20 0 -20 -39 0 -46 8 -4 12 -10 9
-15 -3 -5 -1 -9 4 -9 4 0 9 -21 11 -47 4 -74 11 -64 11 15 0 45 -4 72 -11 72
-6 0 -4 7 5 15 8 8 19 15 25 15 6 0 11 4 11 9 0 5 -11 9 -25 9 -14 0 -25 -4
-25 -9z"/>
<path d="M5112 6155 c0 -16 2 -22 5 -12 2 9 2 23 0 30 -3 6 -5 -1 -5 -18z"/>
<path d="M5102 6095 c0 -16 2 -22 5 -12 2 9 2 23 0 30 -3 6 -5 -1 -5 -18z"/>
<path d="M5088 6053 c-22 -5 -24 -23 -3 -23 8 0 15 -7 15 -15 0 -8 5 -15 10
-15 14 0 12 27 -2 33 -10 4 -9 8 2 16 15 11 8 12 -22 4z"/>
<path d="M4565 6000 c-3 -5 1 -10 10 -10 9 0 13 5 10 10 -3 6 -8 10 -10 10 -2
0 -7 -4 -10 -10z"/>
<path d="M5070 5980 c0 -5 0 -12 0 -15 0 -3 3 -6 8 -7 4 0 13 -8 19 -17 10
-13 11 -10 2 17 -10 30 -29 44 -29 22z"/>
<path d="M5076 5913 c4 -10 9 -39 12 -65 4 -48 17 -63 25 -30 11 41 -4 97 -30
106 -12 5 -13 2 -7 -11z"/>
<path d="M5086 5769 c-15 -45 -11 -54 19 -43 19 8 19 28 0 44 -12 10 -16 10
-19 -1z"/>
<path d="M3305 7179 c-4 -6 -3 -15 3 -21 6 -6 11 -4 15 6 7 18 -9 31 -18 15z"/>
<path d="M3098 7173 c-20 -5 -22 -12 -9 -32 7 -11 10 -10 15 6 5 17 14 20 51
18 25 -1 45 2 45 7 0 8 -71 9 -102 1z"/>
<path d="M3225 7170 c3 -5 12 -7 20 -3 21 7 19 13 -6 13 -11 0 -18 -4 -14 -10z"/>
<path d="M8040 7170 c0 -5 4 -10 9 -10 6 0 13 5 16 10 3 6 -1 10 -9 10 -9 0
-16 -4 -16 -10z"/>
<path d="M8180 7170 l-65 -7 73 0 c39 0 72 4 72 9 0 4 -3 7 -7 6 -5 -1 -37 -5
-73 -8z"/>
<path d="M8407 3416 c-4 -10 -1 -13 9 -9 7 3 14 9 14 14 0 14 -17 10 -23 -5z"/>
<path d="M8400 3380 c0 -5 5 -10 10 -10 6 0 10 5 10 10 0 6 -4 10 -10 10 -5 0
-10 -4 -10 -10z"/>
<path d="M2152 3340 c0 -14 2 -19 5 -12 2 6 2 18 0 25 -3 6 -5 1 -5 -13z"/>
<path d="M6306 3318 c-8 -12 -12 -26 -8 -32 4 -7 8 -3 10 9 2 11 9 26 14 33 6
6 8 12 5 12 -3 0 -13 -10 -21 -22z"/>
<path d="M6307 3101 c-4 -17 -3 -21 5 -13 5 5 8 16 6 23 -3 8 -7 3 -11 -10z"/>
<path d="M6295 2360 c4 -6 11 -8 16 -5 14 9 11 15 -7 15 -8 0 -12 -5 -9 -10z"/>
<path d="M2940 2764 c0 -8 5 -12 10 -9 6 4 8 11 5 16 -9 14 -15 11 -15 -7z"/>
<path d="M2658 2405 c-55 -29 -74 -56 -58 -84 14 -26 44 -35 69 -19 19 12 71
99 71 119 0 16 -33 9 -82 -16z"/>
</g>
</svg>
